<?xml version="1.0" encoding="utf-8" standalone="no"?>
<!DOCTYPE svg PUBLIC "-//W3C//DTD SVG 1.1//EN"
  "http://www.w3.org/Graphics/SVG/1.1/DTD/svg11.dtd">
<svg xmlns:xlink="http://www.w3.org/1999/xlink" width="460.8pt" height="345.6pt" viewBox="0 0 460.8 345.6" xmlns="http://www.w3.org/2000/svg" version="1.1" id="42">
 <metadata>
  <rdf:RDF xmlns:dc="http://purl.org/dc/elements/1.1/" xmlns:cc="http://creativecommons.org/ns#" xmlns:rdf="http://www.w3.org/1999/02/22-rdf-syntax-ns#">
   <cc:Work>
    <dc:type rdf:resource="http://purl.org/dc/dcmitype/StillImage"/>
    <dc:date>2026-06-29T05:18:50.899179</dc:date>
    <dc:format>image/svg+xml</dc:format>
    <dc:creator>
     <cc:Agent>
      <dc:title>Matplotlib v3.10.0, https://matplotlib.org/</dc:title>
     </cc:Agent>
    </dc:creator>
   </cc:Work>
  </rdf:RDF>
 </metadata>
 <defs>
  <style type="text/css">*{stroke-linejoin: round; stroke-linecap: butt}</style>
 </defs>
 <g id="figure_1">
  <g id="patch_1">
   <path d="M 0 345.6 
L 460.8 345.6 
L 460.8 0 
L 0 0 
z
" style="fill: #ffffff"/>
  </g>
  <g id="axes_1">
   <g id="patch_2">
    <path d="M 36.403365 289.476322 
L 457.79976 289.476322 
L 457.79976 3.00024 
L 36.403365 3.00024 
z
" style="fill: #ffffff"/>
   </g>
   <g id="patch_3">
    <path d="M 55.557747 289.476322 
L 72.775168 289.476322 
L 72.775168 113.622575 
L 55.557747 113.622575 
z
" clip-path="url(#p51660e1b49)" style="fill: #1f77b4"/>
   </g>
   <g id="patch_4">
    <path d="M 77.079524 289.476322 
L 94.296945 289.476322 
L 94.296945 101.604163 
L 77.079524 101.604163 
z
" clip-path="url(#p51660e1b49)" style="fill: #1f77b4"/>
   </g>
   <g id="patch_5">
    <path d="M 98.601301 289.476322 
L 115.818722 289.476322 
L 115.818722 16.641958 
L 98.601301 16.641958 
z
" clip-path="url(#p51660e1b49)" style="fill: #1f77b4"/>
   </g>
   <g id="patch_6">
    <path d="M 120.123078 289.476322 
L 137.340499 289.476322 
L 137.340499 18.922235 
L 120.123078 18.922235 
z
" clip-path="url(#p51660e1b49)" style="fill: #1f77b4"/>
   </g>
   <g id="patch_7">
    <path d="M 141.644855 289.476322 
L 158.862277 289.476322 
L 158.862277 34.00105 
L 141.644855 34.00105 
z
" clip-path="url(#p51660e1b49)" style="fill: #1f77b4"/>
   </g>
   <g id="patch_8">
    <path d="M 163.166632 289.476322 
L 180.384054 289.476322 
L 180.384054 34.053561 
L 163.166632 34.053561 
z
" clip-path="url(#p51660e1b49)" style="fill: #1f77b4"/>
   </g>
   <g id="patch_9">
    <path d="M 184.688409 289.476322 
L 201.905831 289.476322 
L 201.905831 27.103692 
L 184.688409 27.103692 
z
" clip-path="url(#p51660e1b49)" style="fill: #1f77b4"/>
   </g>
   <g id="patch_10">
    <path d="M 206.210186 289.476322 
L 223.427608 289.476322 
L 223.427608 26.201633 
L 206.210186 26.201633 
z
" clip-path="url(#p51660e1b49)" style="fill: #1f77b4"/>
   </g>
   <g id="patch_11">
    <path d="M 227.731963 289.476322 
L 244.949385 289.476322 
L 244.949385 97.17026 
L 227.731963 97.17026 
z
" clip-path="url(#p51660e1b49)" style="fill: #1f77b4"/>
   </g>
   <g id="patch_12">
    <path d="M 249.25374 289.476322 
L 266.471162 289.476322 
L 266.471162 114.386852 
L 249.25374 114.386852 
z
" clip-path="url(#p51660e1b49)" style="fill: #1f77b4"/>
   </g>
   <g id="patch_13">
    <path d="M 270.775517 289.476322 
L 287.992939 289.476322 
L 287.992939 96.092173 
L 270.775517 96.092173 
z
" clip-path="url(#p51660e1b49)" style="fill: #1f77b4"/>
   </g>
   <g id="patch_14">
    <path d="M 292.297294 289.476322 
L 309.514716 289.476322 
L 309.514716 92.969954 
L 292.297294 92.969954 
z
" clip-path="url(#p51660e1b49)" style="fill: #1f77b4"/>
   </g>
   <g id="patch_15">
    <path d="M 313.819071 289.476322 
L 331.036493 289.476322 
L 331.036493 81.78183 
L 313.819071 81.78183 
z
" clip-path="url(#p51660e1b49)" style="fill: #1f77b4"/>
   </g>
   <g id="patch_16">
    <path d="M 335.340848 289.476322 
L 352.55827 289.476322 
L 352.55827 90.171944 
L 335.340848 90.171944 
z
" clip-path="url(#p51660e1b49)" style="fill: #1f77b4"/>
   </g>
   <g id="patch_17">
    <path d="M 356.862626 289.476322 
L 374.080047 289.476322 
L 374.080047 97.48043 
L 356.862626 97.48043 
z
" clip-path="url(#p51660e1b49)" style="fill: #1f77b4"/>
   </g>
   <g id="patch_18">
    <path d="M 378.384403 289.476322 
L 395.601824 289.476322 
L 395.601824 115.935906 
L 378.384403 115.935906 
z
" clip-path="url(#p51660e1b49)" style="fill: #1f77b4"/>
   </g>
   <g id="patch_19">
    <path d="M 399.90618 289.476322 
L 417.123601 289.476322 
L 417.123601 109.575641 
L 399.90618 109.575641 
z
" clip-path="url(#p51660e1b49)" style="fill: #1f77b4"/>
   </g>
   <g id="patch_20">
    <path d="M 421.427957 289.476322 
L 438.645378 289.476322 
L 438.645378 90.587169 
L 421.427957 90.587169 
z
" clip-path="url(#p51660e1b49)" style="fill: #1f77b4"/>
   </g>
   <g id="matplotlib.axis_1">
    <g id="xtick_1">
     <g id="line2d_1">
      <defs>
       <path id="mbcb02aef95" d="M 0 0 
L 0 3.5 
" style="stroke: #000000; stroke-width: 0.8"/>
      </defs>
      <g>
       <use xlink:href="#mbcb02aef95" x="64.166457" y="289.476322" style="stroke: #000000; stroke-width: 0.8"/>
      </g>
     </g>
     <g id="text_1">
      <!-- T* 558:A -->
      <g transform="translate(66.925832 340.059135) rotate(-90) scale(0.1 -0.1)">
       <defs>
        <path id="DejaVuSans-54" d="M -19 4666 
L 3928 4666 
L 3928 4134 
L 2272 4134 
L 2272 0 
L 1638 0 
L 1638 4134 
L -19 4134 
L -19 4666 
z
" transform="scale(0.015625)"/>
        <path id="DejaVuSans-2a" d="M 3009 3897 
L 1888 3291 
L 3009 2681 
L 2828 2375 
L 1778 3009 
L 1778 1831 
L 1422 1831 
L 1422 3009 
L 372 2375 
L 191 2681 
L 1313 3291 
L 191 3897 
L 372 4206 
L 1422 3572 
L 1422 4750 
L 1778 4750 
L 1778 3572 
L 2828 4206 
L 3009 3897 
z
" transform="scale(0.015625)"/>
        <path id="DejaVuSans-20" transform="scale(0.015625)"/>
        <path id="DejaVuSans-35" d="M 691 4666 
L 3169 4666 
L 3169 4134 
L 1269 4134 
L 1269 2991 
Q 1406 3038 1543 3061 
Q 1681 3084 1819 3084 
Q 2600 3084 3056 2656 
Q 3513 2228 3513 1497 
Q 3513 744 3044 326 
Q 2575 -91 1722 -91 
Q 1428 -91 1123 -41 
Q 819 9 494 109 
L 494 744 
Q 775 591 1075 516 
Q 1375 441 1709 441 
Q 2250 441 2565 725 
Q 2881 1009 2881 1497 
Q 2881 1984 2565 2268 
Q 2250 2553 1709 2553 
Q 1456 2553 1204 2497 
Q 953 2441 691 2322 
L 691 4666 
z
" transform="scale(0.015625)"/>
        <path id="DejaVuSans-38" d="M 2034 2216 
Q 1584 2216 1326 1975 
Q 1069 1734 1069 1313 
Q 1069 891 1326 650 
Q 1584 409 2034 409 
Q 2484 409 2743 651 
Q 3003 894 3003 1313 
Q 3003 1734 2745 1975 
Q 2488 2216 2034 2216 
z
M 1403 2484 
Q 997 2584 770 2862 
Q 544 3141 544 3541 
Q 544 4100 942 4425 
Q 1341 4750 2034 4750 
Q 2731 4750 3128 4425 
Q 3525 4100 3525 3541 
Q 3525 3141 3298 2862 
Q 3072 2584 2669 2484 
Q 3125 2378 3379 2068 
Q 3634 1759 3634 1313 
Q 3634 634 3220 271 
Q 2806 -91 2034 -91 
Q 1263 -91 848 271 
Q 434 634 434 1313 
Q 434 1759 690 2068 
Q 947 2378 1403 2484 
z
M 1172 3481 
Q 1172 3119 1398 2916 
Q 1625 2713 2034 2713 
Q 2441 2713 2670 2916 
Q 2900 3119 2900 3481 
Q 2900 3844 2670 4047 
Q 2441 4250 2034 4250 
Q 1625 4250 1398 4047 
Q 1172 3844 1172 3481 
z
" transform="scale(0.015625)"/>
        <path id="DejaVuSans-3a" d="M 750 794 
L 1409 794 
L 1409 0 
L 750 0 
L 750 794 
z
M 750 3309 
L 1409 3309 
L 1409 2516 
L 750 2516 
L 750 3309 
z
" transform="scale(0.015625)"/>
        <path id="DejaVuSans-41" d="M 2188 4044 
L 1331 1722 
L 3047 1722 
L 2188 4044 
z
M 1831 4666 
L 2547 4666 
L 4325 0 
L 3669 0 
L 3244 1197 
L 1141 1197 
L 716 0 
L 50 0 
L 1831 4666 
z
" transform="scale(0.015625)"/>
       </defs>
       <use xlink:href="#DejaVuSans-54"/>
       <use xlink:href="#DejaVuSans-2a" transform="translate(61.083984 0)"/>
       <use xlink:href="#DejaVuSans-20" transform="translate(111.083984 0)"/>
       <use xlink:href="#DejaVuSans-35" transform="translate(142.871094 0)"/>
       <use xlink:href="#DejaVuSans-35" transform="translate(206.494141 0)"/>
       <use xlink:href="#DejaVuSans-38" transform="translate(270.117188 0)"/>
       <use xlink:href="#DejaVuSans-3a" transform="translate(333.740234 0)"/>
       <use xlink:href="#DejaVuSans-41" transform="translate(367.431641 0)"/>
      </g>
     </g>
    </g>
    <g id="xtick_2">
     <g id="line2d_2">
      <g>
       <use xlink:href="#mbcb02aef95" x="85.688234" y="289.476322" style="stroke: #000000; stroke-width: 0.8"/>
      </g>
     </g>
     <g id="text_2">
      <!-- E* 559:A -->
      <g transform="translate(88.447609 340.270072) rotate(-90) scale(0.1 -0.1)">
       <defs>
        <path id="DejaVuSans-45" d="M 628 4666 
L 3578 4666 
L 3578 4134 
L 1259 4134 
L 1259 2753 
L 3481 2753 
L 3481 2222 
L 1259 2222 
L 1259 531 
L 3634 531 
L 3634 0 
L 628 0 
L 628 4666 
z
" transform="scale(0.015625)"/>
        <path id="DejaVuSans-39" d="M 703 97 
L 703 672 
Q 941 559 1184 500 
Q 1428 441 1663 441 
Q 2288 441 2617 861 
Q 2947 1281 2994 2138 
Q 2813 1869 2534 1725 
Q 2256 1581 1919 1581 
Q 1219 1581 811 2004 
Q 403 2428 403 3163 
Q 403 3881 828 4315 
Q 1253 4750 1959 4750 
Q 2769 4750 3195 4129 
Q 3622 3509 3622 2328 
Q 3622 1225 3098 567 
Q 2575 -91 1691 -91 
Q 1453 -91 1209 -44 
Q 966 3 703 97 
z
M 1959 2075 
Q 2384 2075 2632 2365 
Q 2881 2656 2881 3163 
Q 2881 3666 2632 3958 
Q 2384 4250 1959 4250 
Q 1534 4250 1286 3958 
Q 1038 3666 1038 3163 
Q 1038 2656 1286 2365 
Q 1534 2075 1959 2075 
z
" transform="scale(0.015625)"/>
       </defs>
       <use xlink:href="#DejaVuSans-45"/>
       <use xlink:href="#DejaVuSans-2a" transform="translate(63.183594 0)"/>
       <use xlink:href="#DejaVuSans-20" transform="translate(113.183594 0)"/>
       <use xlink:href="#DejaVuSans-35" transform="translate(144.970703 0)"/>
       <use xlink:href="#DejaVuSans-35" transform="translate(208.59375 0)"/>
       <use xlink:href="#DejaVuSans-39" transform="translate(272.216797 0)"/>
       <use xlink:href="#DejaVuSans-3a" transform="translate(335.839844 0)"/>
       <use xlink:href="#DejaVuSans-41" transform="translate(369.53125 0)"/>
      </g>
     </g>
    </g>
    <g id="xtick_3">
     <g id="line2d_3">
      <g>
       <use xlink:href="#mbcb02aef95" x="107.210012" y="289.476322" style="stroke: #000000; stroke-width: 0.8"/>
      </g>
     </g>
     <g id="text_3">
      <!-- A* 654:B -->
      <g transform="translate(109.969387 340.81226) rotate(-90) scale(0.1 -0.1)">
       <defs>
        <path id="DejaVuSans-36" d="M 2113 2584 
Q 1688 2584 1439 2293 
Q 1191 2003 1191 1497 
Q 1191 994 1439 701 
Q 1688 409 2113 409 
Q 2538 409 2786 701 
Q 3034 994 3034 1497 
Q 3034 2003 2786 2293 
Q 2538 2584 2113 2584 
z
M 3366 4563 
L 3366 3988 
Q 3128 4100 2886 4159 
Q 2644 4219 2406 4219 
Q 1781 4219 1451 3797 
Q 1122 3375 1075 2522 
Q 1259 2794 1537 2939 
Q 1816 3084 2150 3084 
Q 2853 3084 3261 2657 
Q 3669 2231 3669 1497 
Q 3669 778 3244 343 
Q 2819 -91 2113 -91 
Q 1303 -91 875 529 
Q 447 1150 447 2328 
Q 447 3434 972 4092 
Q 1497 4750 2381 4750 
Q 2619 4750 2861 4703 
Q 3103 4656 3366 4563 
z
" transform="scale(0.015625)"/>
        <path id="DejaVuSans-34" d="M 2419 4116 
L 825 1625 
L 2419 1625 
L 2419 4116 
z
M 2253 4666 
L 3047 4666 
L 3047 1625 
L 3713 1625 
L 3713 1100 
L 3047 1100 
L 3047 0 
L 2419 0 
L 2419 1100 
L 313 1100 
L 313 1709 
L 2253 4666 
z
" transform="scale(0.015625)"/>
        <path id="DejaVuSans-42" d="M 1259 2228 
L 1259 519 
L 2272 519 
Q 2781 519 3026 730 
Q 3272 941 3272 1375 
Q 3272 1813 3026 2020 
Q 2781 2228 2272 2228 
L 1259 2228 
z
M 1259 4147 
L 1259 2741 
L 2194 2741 
Q 2656 2741 2882 2914 
Q 3109 3088 3109 3444 
Q 3109 3797 2882 3972 
Q 2656 4147 2194 4147 
L 1259 4147 
z
M 628 4666 
L 2241 4666 
Q 2963 4666 3353 4366 
Q 3744 4066 3744 3513 
Q 3744 3084 3544 2831 
Q 3344 2578 2956 2516 
Q 3422 2416 3680 2098 
Q 3938 1781 3938 1306 
Q 3938 681 3513 340 
Q 3088 0 2303 0 
L 628 0 
L 628 4666 
z
" transform="scale(0.015625)"/>
       </defs>
       <use xlink:href="#DejaVuSans-41"/>
       <use xlink:href="#DejaVuSans-2a" transform="translate(68.408203 0)"/>
       <use xlink:href="#DejaVuSans-20" transform="translate(118.408203 0)"/>
       <use xlink:href="#DejaVuSans-36" transform="translate(150.195312 0)"/>
       <use xlink:href="#DejaVuSans-35" transform="translate(213.818359 0)"/>
       <use xlink:href="#DejaVuSans-34" transform="translate(277.441406 0)"/>
       <use xlink:href="#DejaVuSans-3a" transform="translate(341.064453 0)"/>
       <use xlink:href="#DejaVuSans-42" transform="translate(374.755859 0)"/>
      </g>
     </g>
    </g>
    <g id="xtick_4">
     <g id="line2d_4">
      <g>
       <use xlink:href="#mbcb02aef95" x="128.731789" y="289.476322" style="stroke: #000000; stroke-width: 0.8"/>
      </g>
     </g>
     <g id="text_4">
      <!-- M* 655:B -->
      <g transform="translate(131.491164 342.59976) rotate(-90) scale(0.1 -0.1)">
       <defs>
        <path id="DejaVuSans-4d" d="M 628 4666 
L 1569 4666 
L 2759 1491 
L 3956 4666 
L 4897 4666 
L 4897 0 
L 4281 0 
L 4281 4097 
L 3078 897 
L 2444 897 
L 1241 4097 
L 1241 0 
L 628 0 
L 628 4666 
z
" transform="scale(0.015625)"/>
       </defs>
       <use xlink:href="#DejaVuSans-4d"/>
       <use xlink:href="#DejaVuSans-2a" transform="translate(86.279297 0)"/>
       <use xlink:href="#DejaVuSans-20" transform="translate(136.279297 0)"/>
       <use xlink:href="#DejaVuSans-36" transform="translate(168.066406 0)"/>
       <use xlink:href="#DejaVuSans-35" transform="translate(231.689453 0)"/>
       <use xlink:href="#DejaVuSans-35" transform="translate(295.3125 0)"/>
       <use xlink:href="#DejaVuSans-3a" transform="translate(358.935547 0)"/>
       <use xlink:href="#DejaVuSans-42" transform="translate(392.626953 0)"/>
      </g>
     </g>
    </g>
    <g id="xtick_5">
     <g id="line2d_5">
      <g>
       <use xlink:href="#mbcb02aef95" x="150.253566" y="289.476322" style="stroke: #000000; stroke-width: 0.8"/>
      </g>
     </g>
     <g id="text_5">
      <!-- G* 656:B -->
      <g transform="translate(153.012941 341.720072) rotate(-90) scale(0.1 -0.1)">
       <defs>
        <path id="DejaVuSans-47" d="M 3809 666 
L 3809 1919 
L 2778 1919 
L 2778 2438 
L 4434 2438 
L 4434 434 
Q 4069 175 3628 42 
Q 3188 -91 2688 -91 
Q 1594 -91 976 548 
Q 359 1188 359 2328 
Q 359 3472 976 4111 
Q 1594 4750 2688 4750 
Q 3144 4750 3555 4637 
Q 3966 4525 4313 4306 
L 4313 3634 
Q 3963 3931 3569 4081 
Q 3175 4231 2741 4231 
Q 1884 4231 1454 3753 
Q 1025 3275 1025 2328 
Q 1025 1384 1454 906 
Q 1884 428 2741 428 
Q 3075 428 3337 486 
Q 3600 544 3809 666 
z
" transform="scale(0.015625)"/>
       </defs>
       <use xlink:href="#DejaVuSans-47"/>
       <use xlink:href="#DejaVuSans-2a" transform="translate(77.490234 0)"/>
       <use xlink:href="#DejaVuSans-20" transform="translate(127.490234 0)"/>
       <use xlink:href="#DejaVuSans-36" transform="translate(159.277344 0)"/>
       <use xlink:href="#DejaVuSans-35" transform="translate(222.900391 0)"/>
       <use xlink:href="#DejaVuSans-36" transform="translate(286.523438 0)"/>
       <use xlink:href="#DejaVuSans-3a" transform="translate(350.146484 0)"/>
       <use xlink:href="#DejaVuSans-42" transform="translate(383.837891 0)"/>
      </g>
     </g>
    </g>
    <g id="xtick_6">
     <g id="line2d_6">
      <g>
       <use xlink:href="#mbcb02aef95" x="171.775343" y="289.476322" style="stroke: #000000; stroke-width: 0.8"/>
      </g>
     </g>
     <g id="text_6">
      <!-- M* 657:B -->
      <g transform="translate(174.534718 342.59976) rotate(-90) scale(0.1 -0.1)">
       <defs>
        <path id="DejaVuSans-37" d="M 525 4666 
L 3525 4666 
L 3525 4397 
L 1831 0 
L 1172 0 
L 2766 4134 
L 525 4134 
L 525 4666 
z
" transform="scale(0.015625)"/>
       </defs>
       <use xlink:href="#DejaVuSans-4d"/>
       <use xlink:href="#DejaVuSans-2a" transform="translate(86.279297 0)"/>
       <use xlink:href="#DejaVuSans-20" transform="translate(136.279297 0)"/>
       <use xlink:href="#DejaVuSans-36" transform="translate(168.066406 0)"/>
       <use xlink:href="#DejaVuSans-35" transform="translate(231.689453 0)"/>
       <use xlink:href="#DejaVuSans-37" transform="translate(295.3125 0)"/>
       <use xlink:href="#DejaVuSans-3a" transform="translate(358.935547 0)"/>
       <use xlink:href="#DejaVuSans-42" transform="translate(392.626953 0)"/>
      </g>
     </g>
    </g>
    <g id="xtick_7">
     <g id="line2d_7">
      <g>
       <use xlink:href="#mbcb02aef95" x="193.29712" y="289.476322" style="stroke: #000000; stroke-width: 0.8"/>
      </g>
     </g>
     <g id="text_7">
      <!-- N* 658:B -->
      <g transform="translate(196.056495 341.452885) rotate(-90) scale(0.1 -0.1)">
       <defs>
        <path id="DejaVuSans-4e" d="M 628 4666 
L 1478 4666 
L 3547 763 
L 3547 4666 
L 4159 4666 
L 4159 0 
L 3309 0 
L 1241 3903 
L 1241 0 
L 628 0 
L 628 4666 
z
" transform="scale(0.015625)"/>
       </defs>
       <use xlink:href="#DejaVuSans-4e"/>
       <use xlink:href="#DejaVuSans-2a" transform="translate(74.804688 0)"/>
       <use xlink:href="#DejaVuSans-20" transform="translate(124.804688 0)"/>
       <use xlink:href="#DejaVuSans-36" transform="translate(156.591797 0)"/>
       <use xlink:href="#DejaVuSans-35" transform="translate(220.214844 0)"/>
       <use xlink:href="#DejaVuSans-38" transform="translate(283.837891 0)"/>
       <use xlink:href="#DejaVuSans-3a" transform="translate(347.460938 0)"/>
       <use xlink:href="#DejaVuSans-42" transform="translate(381.152344 0)"/>
      </g>
     </g>
    </g>
    <g id="xtick_8">
     <g id="line2d_8">
      <g>
       <use xlink:href="#mbcb02aef95" x="214.818897" y="289.476322" style="stroke: #000000; stroke-width: 0.8"/>
      </g>
     </g>
     <g id="text_8">
      <!-- M* 659:B -->
      <g transform="translate(217.578272 342.59976) rotate(-90) scale(0.1 -0.1)">
       <use xlink:href="#DejaVuSans-4d"/>
       <use xlink:href="#DejaVuSans-2a" transform="translate(86.279297 0)"/>
       <use xlink:href="#DejaVuSans-20" transform="translate(136.279297 0)"/>
       <use xlink:href="#DejaVuSans-36" transform="translate(168.066406 0)"/>
       <use xlink:href="#DejaVuSans-35" transform="translate(231.689453 0)"/>
       <use xlink:href="#DejaVuSans-39" transform="translate(295.3125 0)"/>
       <use xlink:href="#DejaVuSans-3a" transform="translate(358.935547 0)"/>
       <use xlink:href="#DejaVuSans-42" transform="translate(392.626953 0)"/>
      </g>
     </g>
    </g>
    <g id="xtick_9">
     <g id="line2d_9">
      <g>
       <use xlink:href="#mbcb02aef95" x="236.340674" y="289.476322" style="stroke: #000000; stroke-width: 0.8"/>
      </g>
     </g>
     <g id="text_9">
      <!-- Q* 766:B -->
      <g transform="translate(239.100049 341.84351) rotate(-90) scale(0.1 -0.1)">
       <defs>
        <path id="DejaVuSans-51" d="M 2522 4238 
Q 1834 4238 1429 3725 
Q 1025 3213 1025 2328 
Q 1025 1447 1429 934 
Q 1834 422 2522 422 
Q 3209 422 3611 934 
Q 4013 1447 4013 2328 
Q 4013 3213 3611 3725 
Q 3209 4238 2522 4238 
z
M 3406 84 
L 4238 -825 
L 3475 -825 
L 2784 -78 
Q 2681 -84 2626 -87 
Q 2572 -91 2522 -91 
Q 1538 -91 948 567 
Q 359 1225 359 2328 
Q 359 3434 948 4092 
Q 1538 4750 2522 4750 
Q 3503 4750 4090 4092 
Q 4678 3434 4678 2328 
Q 4678 1516 4351 937 
Q 4025 359 3406 84 
z
" transform="scale(0.015625)"/>
       </defs>
       <use xlink:href="#DejaVuSans-51"/>
       <use xlink:href="#DejaVuSans-2a" transform="translate(78.710938 0)"/>
       <use xlink:href="#DejaVuSans-20" transform="translate(128.710938 0)"/>
       <use xlink:href="#DejaVuSans-37" transform="translate(160.498047 0)"/>
       <use xlink:href="#DejaVuSans-36" transform="translate(224.121094 0)"/>
       <use xlink:href="#DejaVuSans-36" transform="translate(287.744141 0)"/>
       <use xlink:href="#DejaVuSans-3a" transform="translate(351.367188 0)"/>
       <use xlink:href="#DejaVuSans-42" transform="translate(385.058594 0)"/>
      </g>
     </g>
    </g>
    <g id="xtick_10">
     <g id="line2d_10">
      <g>
       <use xlink:href="#mbcb02aef95" x="257.862451" y="289.476322" style="stroke: #000000; stroke-width: 0.8"/>
      </g>
     </g>
     <g id="text_10">
      <!-- D* 767:B -->
      <g transform="translate(260.621826 341.671635) rotate(-90) scale(0.1 -0.1)">
       <defs>
        <path id="DejaVuSans-44" d="M 1259 4147 
L 1259 519 
L 2022 519 
Q 2988 519 3436 956 
Q 3884 1394 3884 2338 
Q 3884 3275 3436 3711 
Q 2988 4147 2022 4147 
L 1259 4147 
z
M 628 4666 
L 1925 4666 
Q 3281 4666 3915 4102 
Q 4550 3538 4550 2338 
Q 4550 1131 3912 565 
Q 3275 0 1925 0 
L 628 0 
L 628 4666 
z
" transform="scale(0.015625)"/>
       </defs>
       <use xlink:href="#DejaVuSans-44"/>
       <use xlink:href="#DejaVuSans-2a" transform="translate(77.001953 0)"/>
       <use xlink:href="#DejaVuSans-20" transform="translate(127.001953 0)"/>
       <use xlink:href="#DejaVuSans-37" transform="translate(158.789062 0)"/>
       <use xlink:href="#DejaVuSans-36" transform="translate(222.412109 0)"/>
       <use xlink:href="#DejaVuSans-37" transform="translate(286.035156 0)"/>
       <use xlink:href="#DejaVuSans-3a" transform="translate(349.658203 0)"/>
       <use xlink:href="#DejaVuSans-42" transform="translate(383.349609 0)"/>
      </g>
     </g>
    </g>
    <g id="xtick_11">
     <g id="line2d_11">
      <g>
       <use xlink:href="#mbcb02aef95" x="279.384228" y="289.476322" style="stroke: #000000; stroke-width: 0.8"/>
      </g>
     </g>
     <g id="text_11">
      <!-- I* 802:B -->
      <g transform="translate(282.143603 336.921635) rotate(-90) scale(0.1 -0.1)">
       <defs>
        <path id="DejaVuSans-49" d="M 628 4666 
L 1259 4666 
L 1259 0 
L 628 0 
L 628 4666 
z
" transform="scale(0.015625)"/>
        <path id="DejaVuSans-30" d="M 2034 4250 
Q 1547 4250 1301 3770 
Q 1056 3291 1056 2328 
Q 1056 1369 1301 889 
Q 1547 409 2034 409 
Q 2525 409 2770 889 
Q 3016 1369 3016 2328 
Q 3016 3291 2770 3770 
Q 2525 4250 2034 4250 
z
M 2034 4750 
Q 2819 4750 3233 4129 
Q 3647 3509 3647 2328 
Q 3647 1150 3233 529 
Q 2819 -91 2034 -91 
Q 1250 -91 836 529 
Q 422 1150 422 2328 
Q 422 3509 836 4129 
Q 1250 4750 2034 4750 
z
" transform="scale(0.015625)"/>
        <path id="DejaVuSans-32" d="M 1228 531 
L 3431 531 
L 3431 0 
L 469 0 
L 469 531 
Q 828 903 1448 1529 
Q 2069 2156 2228 2338 
Q 2531 2678 2651 2914 
Q 2772 3150 2772 3378 
Q 2772 3750 2511 3984 
Q 2250 4219 1831 4219 
Q 1534 4219 1204 4116 
Q 875 4013 500 3803 
L 500 4441 
Q 881 4594 1212 4672 
Q 1544 4750 1819 4750 
Q 2544 4750 2975 4387 
Q 3406 4025 3406 3419 
Q 3406 3131 3298 2873 
Q 3191 2616 2906 2266 
Q 2828 2175 2409 1742 
Q 1991 1309 1228 531 
z
" transform="scale(0.015625)"/>
       </defs>
       <use xlink:href="#DejaVuSans-49"/>
       <use xlink:href="#DejaVuSans-2a" transform="translate(29.492188 0)"/>
       <use xlink:href="#DejaVuSans-20" transform="translate(79.492188 0)"/>
       <use xlink:href="#DejaVuSans-38" transform="translate(111.279297 0)"/>
       <use xlink:href="#DejaVuSans-30" transform="translate(174.902344 0)"/>
       <use xlink:href="#DejaVuSans-32" transform="translate(238.525391 0)"/>
       <use xlink:href="#DejaVuSans-3a" transform="translate(302.148438 0)"/>
       <use xlink:href="#DejaVuSans-42" transform="translate(335.839844 0)"/>
      </g>
     </g>
    </g>
    <g id="xtick_12">
     <g id="line2d_12">
      <g>
       <use xlink:href="#mbcb02aef95" x="300.906005" y="289.476322" style="stroke: #000000; stroke-width: 0.8"/>
      </g>
     </g>
     <g id="text_12">
      <!-- G* 803:B -->
      <g transform="translate(303.66538 341.720072) rotate(-90) scale(0.1 -0.1)">
       <defs>
        <path id="DejaVuSans-33" d="M 2597 2516 
Q 3050 2419 3304 2112 
Q 3559 1806 3559 1356 
Q 3559 666 3084 287 
Q 2609 -91 1734 -91 
Q 1441 -91 1130 -33 
Q 819 25 488 141 
L 488 750 
Q 750 597 1062 519 
Q 1375 441 1716 441 
Q 2309 441 2620 675 
Q 2931 909 2931 1356 
Q 2931 1769 2642 2001 
Q 2353 2234 1838 2234 
L 1294 2234 
L 1294 2753 
L 1863 2753 
Q 2328 2753 2575 2939 
Q 2822 3125 2822 3475 
Q 2822 3834 2567 4026 
Q 2313 4219 1838 4219 
Q 1578 4219 1281 4162 
Q 984 4106 628 3988 
L 628 4550 
Q 988 4650 1302 4700 
Q 1616 4750 1894 4750 
Q 2613 4750 3031 4423 
Q 3450 4097 3450 3541 
Q 3450 3153 3228 2886 
Q 3006 2619 2597 2516 
z
" transform="scale(0.015625)"/>
       </defs>
       <use xlink:href="#DejaVuSans-47"/>
       <use xlink:href="#DejaVuSans-2a" transform="translate(77.490234 0)"/>
       <use xlink:href="#DejaVuSans-20" transform="translate(127.490234 0)"/>
       <use xlink:href="#DejaVuSans-38" transform="translate(159.277344 0)"/>
       <use xlink:href="#DejaVuSans-30" transform="translate(222.900391 0)"/>
       <use xlink:href="#DejaVuSans-33" transform="translate(286.523438 0)"/>
       <use xlink:href="#DejaVuSans-3a" transform="translate(350.146484 0)"/>
       <use xlink:href="#DejaVuSans-42" transform="translate(383.837891 0)"/>
      </g>
     </g>
    </g>
    <g id="xtick_13">
     <g id="line2d_13">
      <g>
       <use xlink:href="#mbcb02aef95" x="322.427782" y="289.476322" style="stroke: #000000; stroke-width: 0.8"/>
      </g>
     </g>
     <g id="text_13">
      <!-- T* 804:B -->
      <g transform="translate(325.187157 340.079447) rotate(-90) scale(0.1 -0.1)">
       <use xlink:href="#DejaVuSans-54"/>
       <use xlink:href="#DejaVuSans-2a" transform="translate(61.083984 0)"/>
       <use xlink:href="#DejaVuSans-20" transform="translate(111.083984 0)"/>
       <use xlink:href="#DejaVuSans-38" transform="translate(142.871094 0)"/>
       <use xlink:href="#DejaVuSans-30" transform="translate(206.494141 0)"/>
       <use xlink:href="#DejaVuSans-34" transform="translate(270.117188 0)"/>
       <use xlink:href="#DejaVuSans-3a" transform="translate(333.740234 0)"/>
       <use xlink:href="#DejaVuSans-42" transform="translate(367.431641 0)"/>
      </g>
     </g>
    </g>
    <g id="xtick_14">
     <g id="line2d_14">
      <g>
       <use xlink:href="#mbcb02aef95" x="343.949559" y="289.476322" style="stroke: #000000; stroke-width: 0.8"/>
      </g>
     </g>
     <g id="text_14">
      <!-- V* 805:B -->
      <g transform="translate(346.708934 340.81226) rotate(-90) scale(0.1 -0.1)">
       <defs>
        <path id="DejaVuSans-56" d="M 1831 0 
L 50 4666 
L 709 4666 
L 2188 738 
L 3669 4666 
L 4325 4666 
L 2547 0 
L 1831 0 
z
" transform="scale(0.015625)"/>
       </defs>
       <use xlink:href="#DejaVuSans-56"/>
       <use xlink:href="#DejaVuSans-2a" transform="translate(68.408203 0)"/>
       <use xlink:href="#DejaVuSans-20" transform="translate(118.408203 0)"/>
       <use xlink:href="#DejaVuSans-38" transform="translate(150.195312 0)"/>
       <use xlink:href="#DejaVuSans-30" transform="translate(213.818359 0)"/>
       <use xlink:href="#DejaVuSans-35" transform="translate(277.441406 0)"/>
       <use xlink:href="#DejaVuSans-3a" transform="translate(341.064453 0)"/>
       <use xlink:href="#DejaVuSans-42" transform="translate(374.755859 0)"/>
      </g>
     </g>
    </g>
    <g id="xtick_15">
     <g id="line2d_15">
      <g>
       <use xlink:href="#mbcb02aef95" x="365.471336" y="289.476322" style="stroke: #000000; stroke-width: 0.8"/>
      </g>
     </g>
     <g id="text_15">
      <!-- G* 806:B -->
      <g transform="translate(368.230711 341.720072) rotate(-90) scale(0.1 -0.1)">
       <use xlink:href="#DejaVuSans-47"/>
       <use xlink:href="#DejaVuSans-2a" transform="translate(77.490234 0)"/>
       <use xlink:href="#DejaVuSans-20" transform="translate(127.490234 0)"/>
       <use xlink:href="#DejaVuSans-38" transform="translate(159.277344 0)"/>
       <use xlink:href="#DejaVuSans-30" transform="translate(222.900391 0)"/>
       <use xlink:href="#DejaVuSans-36" transform="translate(286.523438 0)"/>
       <use xlink:href="#DejaVuSans-3a" transform="translate(350.146484 0)"/>
       <use xlink:href="#DejaVuSans-42" transform="translate(383.837891 0)"/>
      </g>
     </g>
    </g>
    <g id="xtick_16">
     <g id="line2d_16">
      <g>
       <use xlink:href="#mbcb02aef95" x="386.993113" y="289.476322" style="stroke: #000000; stroke-width: 0.8"/>
      </g>
     </g>
     <g id="text_16">
      <!-- G* 807:B -->
      <g transform="translate(389.752488 341.720072) rotate(-90) scale(0.1 -0.1)">
       <use xlink:href="#DejaVuSans-47"/>
       <use xlink:href="#DejaVuSans-2a" transform="translate(77.490234 0)"/>
       <use xlink:href="#DejaVuSans-20" transform="translate(127.490234 0)"/>
       <use xlink:href="#DejaVuSans-38" transform="translate(159.277344 0)"/>
       <use xlink:href="#DejaVuSans-30" transform="translate(222.900391 0)"/>
       <use xlink:href="#DejaVuSans-37" transform="translate(286.523438 0)"/>
       <use xlink:href="#DejaVuSans-3a" transform="translate(350.146484 0)"/>
       <use xlink:href="#DejaVuSans-42" transform="translate(383.837891 0)"/>
      </g>
     </g>
    </g>
    <g id="xtick_17">
     <g id="line2d_17">
      <g>
       <use xlink:href="#mbcb02aef95" x="408.514891" y="289.476322" style="stroke: #000000; stroke-width: 0.8"/>
      </g>
     </g>
     <g id="text_17">
      <!-- G* 808:B -->
      <g transform="translate(411.274266 341.720072) rotate(-90) scale(0.1 -0.1)">
       <use xlink:href="#DejaVuSans-47"/>
       <use xlink:href="#DejaVuSans-2a" transform="translate(77.490234 0)"/>
       <use xlink:href="#DejaVuSans-20" transform="translate(127.490234 0)"/>
       <use xlink:href="#DejaVuSans-38" transform="translate(159.277344 0)"/>
       <use xlink:href="#DejaVuSans-30" transform="translate(222.900391 0)"/>
       <use xlink:href="#DejaVuSans-38" transform="translate(286.523438 0)"/>
       <use xlink:href="#DejaVuSans-3a" transform="translate(350.146484 0)"/>
       <use xlink:href="#DejaVuSans-42" transform="translate(383.837891 0)"/>
      </g>
     </g>
    </g>
    <g id="xtick_18">
     <g id="line2d_18">
      <g>
       <use xlink:href="#mbcb02aef95" x="430.036668" y="289.476322" style="stroke: #000000; stroke-width: 0.8"/>
      </g>
     </g>
     <g id="text_18">
      <!-- T* 809:B -->
      <g transform="translate(432.796043 340.079447) rotate(-90) scale(0.1 -0.1)">
       <use xlink:href="#DejaVuSans-54"/>
       <use xlink:href="#DejaVuSans-2a" transform="translate(61.083984 0)"/>
       <use xlink:href="#DejaVuSans-20" transform="translate(111.083984 0)"/>
       <use xlink:href="#DejaVuSans-38" transform="translate(142.871094 0)"/>
       <use xlink:href="#DejaVuSans-30" transform="translate(206.494141 0)"/>
       <use xlink:href="#DejaVuSans-39" transform="translate(270.117188 0)"/>
       <use xlink:href="#DejaVuSans-3a" transform="translate(333.740234 0)"/>
       <use xlink:href="#DejaVuSans-42" transform="translate(367.431641 0)"/>
      </g>
     </g>
    </g>
   </g>
   <g id="matplotlib.axis_2">
    <g id="ytick_1">
     <g id="line2d_19">
      <defs>
       <path id="me5179b328b" d="M 0 0 
L -3.5 0 
" style="stroke: #000000; stroke-width: 0.8"/>
      </defs>
      <g>
       <use xlink:href="#me5179b328b" x="36.403365" y="289.476322" style="stroke: #000000; stroke-width: 0.8"/>
      </g>
     </g>
     <g id="text_19">
      <!-- 0 -->
      <g transform="translate(23.040865 293.275541) scale(0.1 -0.1)">
       <use xlink:href="#DejaVuSans-30"/>
      </g>
     </g>
    </g>
    <g id="ytick_2">
     <g id="line2d_20">
      <g>
       <use xlink:href="#me5179b328b" x="36.403365" y="246.686503" style="stroke: #000000; stroke-width: 0.8"/>
      </g>
     </g>
     <g id="text_20">
      <!-- 5 -->
      <g transform="translate(23.040865 250.485721) scale(0.1 -0.1)">
       <use xlink:href="#DejaVuSans-35"/>
      </g>
     </g>
    </g>
    <g id="ytick_3">
     <g id="line2d_21">
      <g>
       <use xlink:href="#me5179b328b" x="36.403365" y="203.896683" style="stroke: #000000; stroke-width: 0.8"/>
      </g>
     </g>
     <g id="text_21">
      <!-- 10 -->
      <g transform="translate(16.678365 207.695902) scale(0.1 -0.1)">
       <defs>
        <path id="DejaVuSans-31" d="M 794 531 
L 1825 531 
L 1825 4091 
L 703 3866 
L 703 4441 
L 1819 4666 
L 2450 4666 
L 2450 531 
L 3481 531 
L 3481 0 
L 794 0 
L 794 531 
z
" transform="scale(0.015625)"/>
       </defs>
       <use xlink:href="#DejaVuSans-31"/>
       <use xlink:href="#DejaVuSans-30" transform="translate(63.623047 0)"/>
      </g>
     </g>
    </g>
    <g id="ytick_4">
     <g id="line2d_22">
      <g>
       <use xlink:href="#me5179b328b" x="36.403365" y="161.106863" style="stroke: #000000; stroke-width: 0.8"/>
      </g>
     </g>
     <g id="text_22">
      <!-- 15 -->
      <g transform="translate(16.678365 164.906082) scale(0.1 -0.1)">
       <use xlink:href="#DejaVuSans-31"/>
       <use xlink:href="#DejaVuSans-35" transform="translate(63.623047 0)"/>
      </g>
     </g>
    </g>
    <g id="ytick_5">
     <g id="line2d_23">
      <g>
       <use xlink:href="#me5179b328b" x="36.403365" y="118.317043" style="stroke: #000000; stroke-width: 0.8"/>
      </g>
     </g>
     <g id="text_23">
      <!-- 20 -->
      <g transform="translate(16.678365 122.116262) scale(0.1 -0.1)">
       <use xlink:href="#DejaVuSans-32"/>
       <use xlink:href="#DejaVuSans-30" transform="translate(63.623047 0)"/>
      </g>
     </g>
    </g>
    <g id="ytick_6">
     <g id="line2d_24">
      <g>
       <use xlink:href="#me5179b328b" x="36.403365" y="75.527223" style="stroke: #000000; stroke-width: 0.8"/>
      </g>
     </g>
     <g id="text_24">
      <!-- 25 -->
      <g transform="translate(16.678365 79.326442) scale(0.1 -0.1)">
       <use xlink:href="#DejaVuSans-32"/>
       <use xlink:href="#DejaVuSans-35" transform="translate(63.623047 0)"/>
      </g>
     </g>
    </g>
    <g id="ytick_7">
     <g id="line2d_25">
      <g>
       <use xlink:href="#me5179b328b" x="36.403365" y="32.737404" style="stroke: #000000; stroke-width: 0.8"/>
      </g>
     </g>
     <g id="text_25">
      <!-- 30 -->
      <g transform="translate(16.678365 36.536622) scale(0.1 -0.1)">
       <use xlink:href="#DejaVuSans-33"/>
       <use xlink:href="#DejaVuSans-30" transform="translate(63.623047 0)"/>
      </g>
     </g>
    </g>
    <g id="text_26">
     <!-- RMSF -->
     <g transform="translate(10.598677 160.076562) rotate(-90) scale(0.1 -0.1)">
      <defs>
       <path id="DejaVuSans-52" d="M 2841 2188 
Q 3044 2119 3236 1894 
Q 3428 1669 3622 1275 
L 4263 0 
L 3584 0 
L 2988 1197 
Q 2756 1666 2539 1819 
Q 2322 1972 1947 1972 
L 1259 1972 
L 1259 0 
L 628 0 
L 628 4666 
L 2053 4666 
Q 2853 4666 3247 4331 
Q 3641 3997 3641 3322 
Q 3641 2881 3436 2590 
Q 3231 2300 2841 2188 
z
M 1259 4147 
L 1259 2491 
L 2053 2491 
Q 2509 2491 2742 2702 
Q 2975 2913 2975 3322 
Q 2975 3731 2742 3939 
Q 2509 4147 2053 4147 
L 1259 4147 
z
" transform="scale(0.015625)"/>
       <path id="DejaVuSans-53" d="M 3425 4513 
L 3425 3897 
Q 3066 4069 2747 4153 
Q 2428 4238 2131 4238 
Q 1616 4238 1336 4038 
Q 1056 3838 1056 3469 
Q 1056 3159 1242 3001 
Q 1428 2844 1947 2747 
L 2328 2669 
Q 3034 2534 3370 2195 
Q 3706 1856 3706 1288 
Q 3706 609 3251 259 
Q 2797 -91 1919 -91 
Q 1588 -91 1214 -16 
Q 841 59 441 206 
L 441 856 
Q 825 641 1194 531 
Q 1563 422 1919 422 
Q 2459 422 2753 634 
Q 3047 847 3047 1241 
Q 3047 1584 2836 1778 
Q 2625 1972 2144 2069 
L 1759 2144 
Q 1053 2284 737 2584 
Q 422 2884 422 3419 
Q 422 4038 858 4394 
Q 1294 4750 2059 4750 
Q 2388 4750 2728 4690 
Q 3069 4631 3425 4513 
z
" transform="scale(0.015625)"/>
       <path id="DejaVuSans-46" d="M 628 4666 
L 3309 4666 
L 3309 4134 
L 1259 4134 
L 1259 2759 
L 3109 2759 
L 3109 2228 
L 1259 2228 
L 1259 0 
L 628 0 
L 628 4666 
z
" transform="scale(0.015625)"/>
      </defs>
      <use xlink:href="#DejaVuSans-52"/>
      <use xlink:href="#DejaVuSans-4d" transform="translate(69.482422 0)"/>
      <use xlink:href="#DejaVuSans-53" transform="translate(155.761719 0)"/>
      <use xlink:href="#DejaVuSans-46" transform="translate(219.238281 0)"/>
     </g>
    </g>
   </g>
   <g id="patch_21">
    <path d="M 36.403365 289.476322 
L 36.403365 3.00024 
" style="fill: none; stroke: #000000; stroke-width: 0.8; stroke-linejoin: miter; stroke-linecap: square"/>
   </g>
   <g id="patch_22">
    <path d="M 457.79976 289.476322 
L 457.79976 3.00024 
" style="fill: none; stroke: #000000; stroke-width: 0.8; stroke-linejoin: miter; stroke-linecap: square"/>
   </g>
   <g id="patch_23">
    <path d="M 36.403365 289.476322 
L 457.79976 289.476322 
" style="fill: none; stroke: #000000; stroke-width: 0.8; stroke-linejoin: miter; stroke-linecap: square"/>
   </g>
   <g id="patch_24">
    <path d="M 36.403365 3.00024 
L 457.79976 3.00024 
" style="fill: none; stroke: #000000; stroke-width: 0.8; stroke-linejoin: miter; stroke-linecap: square"/>
   </g>
  </g>
 </g>
 <defs>
  <clipPath id="p51660e1b49">
   <rect x="36.403365" y="3.00024" width="421.396395" height="286.476082"/>
  </clipPath>
 </defs>
</svg>
